# xmcd
#
# Track frame offsets: 
#        180
#        21383
#        35107
#        56630
#        81628
#        94069
#        111686
#        120383
#        138083
#        151650
#        166450
#
# Disc length: 2428 seconds
#
# Revision: 3
# Processed by: cddbd v1.5.2PL0 Copyright (c) Steve Scherf et al.
# Submitted via: ExactAudioCopyFreeDBPlugin 1.0
#
DISCID=95097a0b
DTITLE=Austin Lounge Lizards - Small Minds
DYEAR=1995
DGENRE=Comedy
TTITLE0=Shallow End Of The Gene Pool
TTITLE1=Half A Man
TTITLE2=Old Blevins
TTITLE3=Big Tex's Girl
TTITLE4=Do Not Go To Tennessee
TTITLE5=Truckload Of Art
TTITLE6=Gingrich The Newt
TTITLE7=Irving
TTITLE8=Life Is Hard, But Life Is Hardest When You're Dumb
TTITLE9=Bonfire Of The Inanities
TTITLE10=Mourning Edition
EXTD=YEAR: 1995 ID3G: 89
EXTT0=
EXTT1=
EXTT2=
EXTT3=
EXTT4=
EXTT5=
EXTT6=
EXTT7=
EXTT8=
EXTT9=
EXTT10=
PLAYORDER=
